HIERARCHY
ROOT Hips
{
    OFFSET 0.000000 0.000000 0.000000
    CHANNELS 6 Xposition Yposition Zposition Zrotation Xrotation Yrotation
    JOINT Spine
    {
        OFFSET -0.000000 7.897928 0.000000
        CHANNELS 3 Zrotation Xrotation Yrotation
        JOINT Spine1
        {
            OFFSET -0.000000 22.881742 0.000000
            CHANNELS 3 Zrotation Xrotation Yrotation
            JOINT Neck
            {
                OFFSET -0.000000 22.787771 2.071616
                CHANNELS 3 Zrotation Xrotation Yrotation
                JOINT Head
                {
                    OFFSET -0.000000 13.484266 -1.926324
                    CHANNELS 3 Zrotation Xrotation Yrotation
                    End Site
                    {
                        OFFSET -0.000000 24.079046 0.000000
                    }
                }
            }
            JOINT LeftShoulder
            {
                OFFSET 3.854963 21.096247 -0.110468
                CHANNELS 3 Zrotation Xrotation Yrotation
                JOINT LeftArm
                {
                    OFFSET 10.572188 0.000000 0.000000
                    CHANNELS 3 Zrotation Xrotation Yrotation
                    JOINT LeftForeArm
                    {
                        OFFSET 34.932854 0.000000 0.000000
                        CHANNELS 3 Zrotation Xrotation Yrotation
                        JOINT LeftHand
                        {
                            OFFSET 23.279285 0.000000 0.000000
                            CHANNELS 3 Zrotation Xrotation Yrotation
                            End Site
                            {
                                OFFSET 14.447429 0.000000 0.000000
                            }
                        }
                    }
                }
            }
            JOINT RightShoulder
            {
                OFFSET -3.825334 21.096247 -0.110468
                CHANNELS 3 Zrotation Xrotation Yrotation
                JOINT RightArm
                {
                    OFFSET -10.572188 0.000000 0.000000
                    CHANNELS 3 Zrotation Xrotation Yrotation
                    JOINT RightForeArm
                    {
                        OFFSET -34.932854 0.000000 0.000000
                        CHANNELS 3 Zrotation Xrotation Yrotation
                        JOINT RightHand
                        {
                            OFFSET -23.279285 0.000000 0.000000
                            CHANNELS 3 Zrotation Xrotation Yrotation
                            End Site
                            {
                                OFFSET -14.447429 0.000000 0.000000
                            }
                        }
                    }
                }
            }
        }
    }
    JOINT LeftUpLeg
    {
        OFFSET 9.631618 0.000000 0.000000
        CHANNELS 3 Zrotation Xrotation Yrotation
        JOINT LeftLeg
        {
            OFFSET -0.000000 -35.385456 0.000000
            CHANNELS 3 Zrotation Xrotation Yrotation
            JOINT LeftFoot
            {
                OFFSET -0.000000 -43.284000 0.000000
                CHANNELS 3 Zrotation Xrotation Yrotation
                JOINT LeftToeBase
                {
                    OFFSET -0.000000 -6.260552 14.447429
                    CHANNELS 3 Zrotation Xrotation Yrotation
                    End Site
                    {
                        OFFSET -0.000000 0.000000 3.852648
                    }
                }
            }
        }
    }
    JOINT RightUpLeg
    {
        OFFSET -9.631618 0.000000 0.000000
        CHANNELS 3 Zrotation Xrotation Yrotation
        JOINT RightLeg
        {
            OFFSET -0.000000 -35.385456 0.000000
            CHANNELS 3 Zrotation Xrotation Yrotation
            JOINT RightFoot
            {
                OFFSET -0.000000 -43.284000 0.000000
                CHANNELS 3 Zrotation Xrotation Yrotation
                JOINT RightToeBase
                {
                    OFFSET -0.000000 -6.260552 14.447429
                    CHANNELS 3 Zrotation Xrotation Yrotation
                    End Site
                    {
                        OFFSET -0.000000 0.000000 3.852648
                    }
                }
            }
        }
    }
}
MOTION
Frames:    4
Frame Time:    0.008333
55.390297    87.836327    19.459761    1.306769    0.364355    88.611885    0.269124    1.569698    -0.916021    -2.631192    -6.132020    -1.053364    1.560257    13.617270    -4.955600    1.205739    8.653317    -5.117369    15.836716    1.526275    4.921050    -19.933863    2.821822    -9.648927    1.998880    -3.682724    -0.161954    -1.117188    -3.703608    2.435632    -11.555389    0.859218    9.583701    16.570826    1.707617    -0.431129    -1.303717    0.408553    0.104457    -3.322667    0.334581    2.591107    7.293395    5.407333    0.009386    -3.768100    4.132434    2.131048    -6.317674    -8.187650    13.613777    0.000000    0.000000    0.000000    -8.565917    0.836274    -1.737807    3.946133    9.140735    -1.963134    4.730803    -8.156417    -10.888200    0.000000    0.000000    0.000000    
55.403782    87.836746    19.452953    1.296583    0.373828    88.592148    0.286964    1.569007    -0.911803    -2.662914    -6.163766    -1.051314    1.598755    13.684260    -4.936537    1.138514    8.568484    -5.101134    15.779819    1.545025    4.981017    -19.854759    2.761038    -9.725015    1.977451    -3.716891    -0.123169    -1.186962    -3.739711    2.412477    -11.536759    0.897724    9.621824    16.557116    1.690484    -0.446837    -1.296637    0.460913    0.108990    -3.279874    0.387674    2.604188    7.276937    5.421729    0.022466    -3.766947    4.112802    2.131835    -6.306174    -8.182977    13.622582    0.000000    0.000000    0.000000    -8.582497    0.828389    -1.724310    3.950639    9.151583    -1.920190    4.739041    -8.171516    -10.934806    0.000000    0.000000    0.000000    
55.410542    87.836906    19.452948    1.291651    0.368947    88.593285    0.288180    1.568328    -0.912518    -2.646259    -6.174997    -1.051396    1.609816    13.678572    -4.933818    1.090440    8.585685    -5.102091    15.761445    1.554750    4.979204    -19.848446    2.753925    -9.725128    1.970248    -3.744964    -0.114604    -1.163337    -3.767372    2.404518    -11.545086    0.882862    9.628752    16.553440    1.731482    -0.456456    -1.289761    0.477227    0.101927    -3.216323    0.404844    2.618443    7.284721    5.422532    0.013368    -3.774040    4.115984    2.138458    -6.289844    -8.184448    13.624317    0.000000    0.000000    0.000000    -8.571212    0.837433    -1.724964    3.937587    9.125062    -1.951033    4.741103    -8.155199    -10.895601    0.000000    0.000000    0.000000    
55.416107    87.837219    19.451174    1.284183    0.370211    88.591858    0.300966    1.565966    -0.915160    -2.658428    -6.191996    -1.054934    1.575830    13.703636    -4.926651    1.125560    8.564304    -5.090844    15.756537    1.558908    4.970756    -19.843525    2.759747    -9.704934    1.964359    -3.758394    -0.120596    -1.140236    -3.780174    2.399145    -11.540437    0.904495    9.646050    16.545473    1.722020    -0.458115    -1.293481    0.494653    0.097252    -3.152341    0.423246    2.639968    7.277851    5.412889    0.025287    -3.766057    4.126792    2.148658    -6.151758    -8.181317    13.601269    0.000000    0.000000    0.000000    -8.579181    0.835106    -1.714444    3.947758    9.115339    -1.923527    4.747753    -8.149785    -10.930971    0.000000    0.000000    0.000000    
